<?xml version="1.0" encoding="UTF-8"?>
<svg id="Layer_1" data-name="Layer 1" xmlns="http://www.w3.org/2000/svg" viewBox="0 0 500 500">
  <defs>
    <style>
      .cls-1 {
        fill: #0a4bff;
      }

      .cls-2 {
        fill: #fff;
      }
    </style>
  </defs>
  <rect class="cls-1" width="500" height="500"/>
  <g>
    <g>
      <path class="cls-2" d="M189.6,281.6l-18.78-25.15h-5.86v25.15h-11.72v-61.17h11.72v25.15h5.78l17.59-25.15h14.27l-21.24,30.5,22.85,30.67h-14.61Z"/>
      <path class="cls-2" d="M222.57,219.15v10.2h-11.55v-10.2h11.55ZM222.57,235.72v45.88h-11.55v-45.88h11.55Z"/>
      <path class="cls-2" d="M249.59,261.46c0,3.57-.17,6.54.93,8.24,1.1,1.78,3.06,2.46,4.84,2.63,2.21.17,5.01,0,7.48-.34v9.6c-3.57,1.02-10.03.93-13.42.34-4.25-.76-6.88-2.12-9.35-5.78-2.55-3.74-2.04-8.5-2.04-14.02v-17.5h-7.82v-8.92h7.82v-12.74h11.55v12.74h13.25v8.92h-13.25v16.82Z"/>
      <path class="cls-2" d="M315.01,235.72v49.02c0,7.14-2.72,12.23-8.5,15.46-4.67,2.63-9.01,2.97-13,2.97-2.97,0-6.88-.85-9.6-2.04-3.31-1.61-6.71-4.42-8.67-7.82l10.71-5.18c.59,1.1,1.44,1.95,2.46,2.72,1.44,1.02,3.74,1.44,5.18,1.44,2.63,0,5.35-.76,7.05-2.04,2.12-1.61,2.89-3.31,2.8-5.69v-4.76c-3.31,2.04-7.39,3.06-11.81,3.06-6.03,0-12.06-2.63-15.8-7.31-3.91-4.76-5.35-10.62-5.35-16.91s1.78-12.4,5.35-16.91c3.91-4.84,10.03-7.31,16.4-7.31,4.67,0,9.18,1.53,12.66,4.16v-2.89h10.11ZM301.68,269.37c2.21-2.46,3.23-6.54,3.23-10.71s-1.02-8.16-3.23-10.71c-1.87-2.21-4.59-3.23-7.73-3.23-3.82,0-6.8,1.1-8.75,4.08-1.61,2.38-2.46,5.95-2.46,9.86s.68,7.48,2.29,9.86c1.95,2.97,5.27,4.08,8.5,4.08s6.12-1.02,8.16-3.23Z"/>
      <path class="cls-2" d="M339.15,268.18c1.87,2.55,5.01,3.91,8.41,3.91,2.72,0,4.84-.68,6.54-2.04s2.46-2.63,2.97-3.74l11.55,3.31c-1.53,3.74-4.42,7.31-7.99,9.6s-8.16,3.65-12.4,3.65c-6.97,0-14.1-2.63-18.27-7.65-3.74-4.59-5.61-10.11-5.61-15.97,0-6.63,1.95-12.74,5.61-17.16,4.25-5.01,10.79-7.65,17.59-7.65s12.15,2.21,16.4,7.22c4.59,5.35,5.69,12.23,5.1,20.22h-32.29c.34,2.29,1.02,4.5,2.38,6.29ZM339.23,248.21c-1.19,1.53-1.78,3.06-2.21,4.76h20.48c-.17-1.87-.68-3.57-1.87-5.1-1.78-2.29-4.93-3.4-8.07-3.4-2.97,0-6.03.85-8.33,3.74Z"/>
      <path class="cls-2" d="M420.29,259.43v22.17h-11.72v-21.67c0-4.76-.68-9.52-3.06-12.06-1.61-1.78-4.08-2.72-7.22-2.63-2.12.08-3.91.68-5.44,1.78-1.7,1.27-2.89,3.31-3.4,5.86-.42,2.04-.51,5.61-.51,8.75v19.97h-11.64v-45.88h10.2v4.76c.17-.17.42-.42.59-.68,2.97-3.57,7.65-5.1,11.81-5.35,5.44-.34,10.96.59,15.38,4.93,5.01,4.93,5.01,12.91,5.01,20.05Z"/>
      <path class="cls-2" d="M443.74,219.15v10.2h-11.55v-10.2h11.55ZM443.74,235.72v45.88h-11.55v-45.88h11.55Z"/>
      <path class="cls-2" d="M481.89,258.41l16.48,23.19h-14.02l-9.43-14.1-9.52,14.1h-14.02l16.4-23.19-16.06-22.68h14.02l9.18,13.59,9.01-13.59h14.02l-16.06,22.68Z"/>
    </g>
    <g>
      <circle class="cls-2" cx="61.57" cy="250" r="61.03"/>
      <g>
        <polygon class="cls-1" points="49.78 220.38 34.46 220.38 34.46 281.47 49.78 281.47 49.78 258.54 49.78 258.54 49.78 244.59 49.78 220.38"/>
        <polygon class="cls-1" points="93.54 281.47 70.35 250.41 91.57 220.38 74.2 220.38 61.77 238.8 52.1 251.47 62.26 264.78 62.26 264.78 74.03 281.47 93.54 281.47"/>
      </g>
    </g>
  </g>
</svg>