<?xml version="1.0" encoding="UTF-8"?>
<svg id="Layer_1" data-name="Layer 1" xmlns="http://www.w3.org/2000/svg" viewBox="0 0 5000 5000">
  <defs>
    <style>
      .cls-1 {
        fill: #fff;
      }
    </style>
  </defs>
  <g>
    <path d="M2130.36,2812.41h-204.85l-169.81-240.79v240.79h-160.82v-641.5h160.82v254.26l171.61-254.26h182.39l-222.82,315.36,243.48,326.14Z"/>
    <path d="M2300.16,2294.45c-16.17,16.48-38.04,24.71-65.59,24.71s-49.42-8.23-65.59-24.71c-16.17-16.47-24.26-38.77-24.26-66.94s8.09-50.45,24.26-66.94c16.17-16.47,38.03-24.71,65.59-24.71s49.42,8.24,65.59,24.71c16.17,16.48,24.26,38.79,24.26,66.94s-8.09,50.47-24.26,66.94ZM2154.61,2812.41v-449.23h159.93v449.23h-159.93Z"/>
    <path d="M2710.75,2660.57l45.82,111.41c-43.73,33.55-96.44,50.31-158.13,50.31-50.92,0-91.5-14.96-121.74-44.92-30.25-29.94-45.37-72.47-45.37-127.58v-181.49h-57.5v-105.12h57.5v-139.26h159.93v139.26h134.77v105.12h-134.77v160.82c0,35.94,17.97,53.91,53.91,53.91,23.36,0,45.22-7.48,65.59-22.46Z"/>
    <path d="M3257.01,2378.46c-19.18,23.96-42.83,43.13-70.98,57.5,13.17,22.77,19.77,47.93,19.77,75.47,0,47.32-18.73,84.9-56.15,112.76-37.44,27.85-89.4,41.78-155.88,41.78-25.16,0-47.32-2.09-66.49-6.29-3.59,3.59-5.39,8.69-5.39,15.27,0,16.17,18.87,26.06,56.6,29.65,90.44,8.98,150.94,20.07,181.49,33.24,50.9,21.56,76.37,60.8,76.37,117.7,0,52.7-22.17,92.23-66.49,118.6-44.33,26.35-104.82,39.53-181.49,39.53-65.9,0-119.94-11.23-162.17-33.69s-63.34-55.86-63.34-100.18,22.76-77.86,68.28-97.03c-23.96-19.16-35.94-43.72-35.94-73.67,0-34.14,15.86-62.58,47.62-85.35-36.54-26.95-54.81-63.79-54.81-110.51,0-49.11,19.16-88.34,57.5-117.7,38.32-29.34,89.24-44.02,152.74-44.02,40.73,0,76.37,6.29,106.92,18.87,27.54-13.77,55.1-35.63,82.66-65.59l69.18,73.67ZM3089.89,2864.52c0-7.79-2.25-14.08-6.74-18.87-4.49-4.8-12.44-8.54-23.81-11.23-11.39-2.7-20.82-4.49-28.3-5.39-7.5-.9-19.92-1.95-37.29-3.14-32.34-2.4-50.02-3.9-53.01-4.49-23.96,11.97-35.94,26.35-35.94,43.13,0,28.15,30.84,42.23,92.54,42.23s92.54-14.08,92.54-42.23ZM2996.45,2560.85c47.31,0,70.98-16.47,70.98-49.42,0-16.17-6.29-28.75-18.87-37.74s-29.96-13.48-52.11-13.48-39.39,4.49-51.66,13.48c-12.28,8.98-18.42,21.56-18.42,37.74,0,32.95,23.36,49.42,70.08,49.42Z"/>
    <path d="M3512.17,2701.01c41.92,0,85.35-13.48,130.28-40.43l57.5,101.53c-58.1,40.74-124.3,61.09-198.56,61.09s-134.47-22.46-175.2-67.38c-40.74-44.92-61.1-99.13-61.1-162.62,0-67.08,21.7-124.13,65.14-171.16,43.42-47.01,100.77-70.53,172.05-70.53,57.5,0,105.12,14.24,142.85,42.68,37.74,28.46,56.6,66.64,56.6,114.55,0,39.53-12.44,72.77-37.29,99.73-24.86,26.95-65.14,40.43-120.84,40.43h-131.17c14.96,34.75,48.21,52.11,99.73,52.11ZM3504.98,2470.1c-20.97,0-40.74,6.6-59.3,19.77-18.57,13.18-31.45,32.34-38.63,57.5h97.03c18.56,0,32.34-4.04,41.33-12.13,8.98-8.09,13.48-17.21,13.48-27.4,0-10.78-4.94-19.77-14.82-26.95-9.88-7.19-22.91-10.78-39.08-10.78Z"/>
    <path d="M4071.91,2351.5c47.31,0,84.75,13.03,112.31,39.08,27.54,26.06,41.33,64.24,41.33,114.55v307.27h-162.62v-270.44c0-41.92-16.48-62.89-49.42-62.89-25.16,0-51.21,10.49-78.17,31.45v301.88h-163.52v-449.23h148.25v37.73c49.11-32.93,99.73-49.42,151.84-49.42Z"/>
    <path d="M4454.65,2294.45c-16.17,16.48-38.04,24.71-65.59,24.71s-49.42-8.23-65.59-24.71c-16.17-16.47-24.26-38.77-24.26-66.94s8.09-50.45,24.26-66.94c16.17-16.47,38.03-24.71,65.59-24.71s49.42,8.24,65.59,24.71c16.17,16.48,24.26,38.79,24.26,66.94s-8.09,50.47-24.26,66.94ZM4309.1,2812.41v-449.23h159.93v449.23h-159.93Z"/>
    <path d="M5000.01,2363.19l-138.36,231.8,133.87,217.43h-170.71l-75.47-135.67-72.77,135.67h-161.72l134.77-226.41-132.07-222.82h172.5l71.88,142.85,78.17-142.85h159.93Z"/>
  </g>
  <g>
    <circle cx="637.89" cy="2490.35" r="637.89"/>
    <g>
      <polygon class="cls-1" points="514.62 2180.75 354.55 2180.75 354.55 2819.25 514.62 2819.25 514.62 2579.65 514.62 2579.59 514.62 2433.82 514.62 2180.75"/>
      <polygon class="cls-1" points="972.02 2819.25 729.68 2494.63 951.45 2180.75 769.91 2180.75 639.96 2373.31 538.9 2505.7 645.11 2644.84 645.11 2644.81 768.13 2819.25 972.02 2819.25"/>
    </g>
  </g>
</svg>